<?xml version="1.0" encoding="UTF-8" standalone="no"?>
<svg
   style="transform:rotate(0deg)"
   class="svgMarker"
   width="100%"
   height="100%"
   viewBox="0 0 512 512"
   version="1.1"
   xml:space="preserve"
   id="svg12"
   sodipodi:docname="surveillance-direction.svg"
   inkscape:version="1.2.2 (b0a8486541, 2022-12-01)"
   xmlns:inkscape="http://www.inkscape.org/namespaces/inkscape"
   xmlns:sodipodi="http://sodipodi.sourceforge.net/DTD/sodipodi-0.dtd"
   xmlns="http://www.w3.org/2000/svg"
   xmlns:svg="http://www.w3.org/2000/svg"><defs
   id="defs16" /><sodipodi:namedview
   id="namedview14"
   pagecolor="#ffffff"
   bordercolor="#666666"
   borderopacity="1.0"
   inkscape:showpageshadow="2"
   inkscape:pageopacity="0.0"
   inkscape:pagecheckerboard="0"
   inkscape:deskcolor="#d1d1d1"
   showgrid="false"
   inkscape:zoom="0.4609375"
   inkscape:cx="253.83051"
   inkscape:cy="257.08475"
   inkscape:window-width="1714"
   inkscape:window-height="1062"
   inkscape:window-x="0"
   inkscape:window-y="0"
   inkscape:window-maximized="1"
   inkscape:current-layer="svg12" />
      
      <path
   class="someSVGpath"
   d="M215.248,221.461L99.696,43.732C144.935,16.031 198.536,0 256,0C313.464,0 367.065,16.031 412.304,43.732L296.752,221.461C287.138,209.593 272.448,202.001 256,202.001C239.552,202.001 224.862,209.593 215.248,221.461Z"
   style="fill:rgb(87,87,87);fill-opacity:0.46;"
   id="path2" />
      <path
   class="someSVGpath"
   d="M215.248,221.461L99.696,43.732C144.935,16.031 198.536,0 256,0C313.464,0 367.065,16.031 412.304,43.732L296.752,221.461C287.138,209.593 272.448,202.001 256,202.001C239.552,202.001 224.862,209.593 215.248,221.461ZM217.92,200.242C228.694,192.652 241.831,188.195 256,188.195C270.169,188.195 283.306,192.652 294.08,200.242C294.08,200.242 392.803,48.4 392.803,48.4C352.363,26.364 305.694,13.806 256,13.806C206.306,13.806 159.637,26.364 119.197,48.4L217.92,200.242Z"
   style="fill:rgb(137,135,135);"
   id="path4" />
    
      
    </svg>
